<svg xmlns="http://www.w3.org/2000/svg" width="24" height="25" viewBox="0 0 24 25">
    <g fill="none" fill-rule="evenodd">
        <path d="M0 0H24V24H0z" transform="translate(0 .5)"/>
        <path fill="#FFF" d="M12.521 3.819l7.522 4.596c.594.363.957 1.01.957 1.707V19c0 1.105-.895 2-2 2H5c-1.105 0-2-.895-2-2v-8.878c0-.697.363-1.344.957-1.707L11.48 3.82c.32-.196.722-.196 1.042 0zM14 13h-4c-.552 0-1 .448-1 1v3c0 .552.448 1 1 1h4c.552 0 1-.448 1-1v-3c0-.552-.448-1-1-1z" transform="translate(0 .5)"/>
    </g>
</svg>
