<svg xmlns="http://www.w3.org/2000/svg" width="24" height="25" viewBox="0 0 24 25">
    <g fill="none" fill-rule="evenodd">
        <path d="M0 0H24V24H0z" transform="translate(0 .5)"/>
        <path fill="#FFF" d="M6 3L18 3 20 6.5 4 6.5z" opacity=".44" transform="translate(0 .5)"/>
        <path fill="#FFF" d="M18 5c1.105 0 2 .895 2 2v12c0 1.105-.895 2-2 2H6c-1.105 0-2-.895-2-2V7c0-1.105.895-2 2-2h12zm-3 4H9c-.552 0-1 .448-1 1s.448 1 1 1h6c.552 0 1-.448 1-1s-.448-1-1-1z" transform="translate(0 .5)"/>
    </g>
</svg>
