<svg xmlns="http://www.w3.org/2000/svg" width="24" height="25" viewBox="0 0 24 25">
    <g fill="none" fill-rule="evenodd">
        <path d="M0 0H24V24H0z" transform="translate(0 .5)"/>
        <path fill="#FFF" fill-rule="nonzero" d="M10.823 8.37l1.91 1.453C13.41 8.931 14.458 8.4 15.6 8.4c1.988 0 3.6 1.612 3.6 3.6s-1.612 3.6-3.6 3.6c-1.019 0-1.964-.422-2.643-1.155l-1.76 1.63C12.291 17.26 13.86 18 15.6 18c3.314 0 6-2.686 6-6s-2.686-6-6-6c-1.95 0-3.681.93-4.777 2.37z" opacity=".44" transform="translate(0 .5)"/>
        <path fill="#FFF" d="M8.4 18c-3.314 0-6-2.686-6-6s2.686-6 6-6 6 2.686 6 6-2.686 6-6 6z" transform="translate(0 .5)"/>
    </g>
</svg>
