<svg xmlns="http://www.w3.org/2000/svg" width="24" height="24" viewBox="0 0 24 24">
    <g fill="none" fill-rule="evenodd">
        <path d="M0 0H24V24H0z"/>
        <path fill="#FFF" d="M15.95 3.808l-2.925 2.925c-.781.78-.781 2.047 0 2.828l1.414 1.414c.78.781 2.047.781 2.828 0l2.925-2.925c.542 1.995.038 4.206-1.517 5.76-1.83 1.83-4.566 2.206-6.791 1.134l-5.127 5.127c-.78.781-2.047.781-2.828 0-.781-.781-.781-2.047 0-2.828l5.127-5.127c-1.072-2.225-.696-4.961 1.133-6.79 1.555-1.556 3.766-2.06 5.76-1.518z"/>
        <path fill="#FFF" d="M16.657 5.929l1.414 1.414c.39.39.39 1.024 0 1.414l-1.38 1.38c-.39.39-1.023.39-1.414 0l-1.414-1.414c-.39-.39-.39-1.024 0-1.414l1.38-1.38c.39-.39 1.023-.39 1.414 0z" opacity=".44"/>
    </g>
</svg>
