<svg xmlns="http://www.w3.org/2000/svg" width="24" height="24" viewBox="0 0 24 24">
    <g fill="none" fill-rule="evenodd">
        <path d="M1 0H25V24H1z"/>
        <path fill="#FFF" d="M23.23 8.663c.533.143.85.692.706 1.225l-2.588 9.66c-.143.533-.691.85-1.225.706L1.771 15.337c-.534-.143-.85-.692-.707-1.225l2.588-9.66c.143-.533.691-.85 1.225-.706l18.352 4.917zm-9.695-.527c-2.134-.571-4.327.695-4.899 2.829-.571 2.134.695 4.327 2.829 4.899 2.134.571 4.327-.695 4.899-2.829.571-2.134-.695-4.327-2.829-4.899z" opacity=".44"/>
        <path fill="#FFF" d="M22 6c.552 0 1 .448 1 1v10c0 .552-.448 1-1 1H3c-.552 0-1-.448-1-1V7c0-.552.448-1 1-1h19zm-9.5 2c-2.21 0-4 1.79-4 4s1.79 4 4 4 4-1.79 4-4-1.79-4-4-4zm0 6c1.105 0 2-.895 2-2s-.895-2-2-2-2 .895-2 2 .895 2 2 2z"/>
    </g>
</svg>
