<svg xmlns="http://www.w3.org/2000/svg" width="24" height="25" viewBox="0 0 24 25">
    <g fill="none" fill-rule="evenodd">
        <path d="M0 0L24 0 24 24 0 24z" transform="translate(0 .5)"/>
        <path fill="#FFF" fill-rule="nonzero" d="M9 3c2.21 0 4 1.79 4 4s-1.79 4-4 4-4-1.79-4-4 1.79-4 4-4zm10 0c.552 0 1 .448 1 1v2h2c.552 0 1 .448 1 1s-.448 1-1 1h-2v2c0 .552-.448 1-1 1s-1-.448-1-1V8h-2c-.552 0-1-.448-1-1s.448-1 1-1h2V4c0-.552.448-1 1-1z" opacity=".44" transform="translate(0 .5)"/>
        <path fill="#FFF" fill-rule="nonzero" d="M0 20.2C.389 15.426 4.263 13 8.984 13c4.788 0 8.722 2.293 9.015 7.2.012.195 0 .8-.751.8H.727c-.25 0-.747-.54-.726-.8z" transform="translate(0 .5)"/>
    </g>
</svg>
