<svg xmlns="http://www.w3.org/2000/svg" width="24" height="24" viewBox="0 0 24 24">
    <g fill="none" fill-rule="evenodd">
        <path d="M0 1H24V25H0z"/>
        <g fill="#FFF" opacity=".44" transform="rotate(45 7.086 19.243)">
            <path d="M6.354.146c3.313 0 6 2.687 6 6v13c0 1.105-.896 2-2 2h-8c-1.105 0-2-.895-2-2v-12h3c.056 0 .112-.004.166-.013.407 1.171 1.522 2.013 2.834 2.013 1.656 0 3-1.343 3-3 0-1.656-1.344-3-3-3-1.312 0-2.427.842-2.835 2.015-.053-.01-.109-.015-.165-.015H.437c.476-2.838 2.944-5 5.917-5z"/>
            <rect width="8" height="2" x="2.354" y="13.146" rx="1"/>
            <rect width="6" height="2" x="3.354" y="17.146" rx="1"/>
        </g>
    </g>
</svg>
