<svg xmlns="http://www.w3.org/2000/svg" width="24" height="24" viewBox="0 0 24 24">
    <g fill="none" fill-rule="evenodd">
        <path d="M0 0H24V24H0z"/>
        <path fill="#FFF" d="M7 4H17V8H7z" opacity=".44"/>
        <path fill="#FFF" d="M17 2c1.105 0 2 .895 2 2v16c0 1.105-.895 2-2 2H7c-1.105 0-2-.895-2-2V4c0-1.105.895-2 2-2h10zm-1 16c-.552 0-1 .448-1 1s.448 1 1 1 1-.448 1-1-.448-1-1-1zm-4 0H8c-.552 0-1 .448-1 1s.448 1 1 1h4c.552 0 1-.448 1-1s-.448-1-1-1zm-4-4c-.552 0-1 .448-1 1s.448 1 1 1 1-.448 1-1-.448-1-1-1zm4 0c-.552 0-1 .448-1 1s.448 1 1 1 1-.448 1-1-.448-1-1-1zm4 0c-.552 0-1 .448-1 1s.448 1 1 1 1-.448 1-1-.448-1-1-1zm-8-4c-.552 0-1 .448-1 1s.448 1 1 1 1-.448 1-1-.448-1-1-1zm4 0c-.552 0-1 .448-1 1s.448 1 1 1 1-.448 1-1-.448-1-1-1zm4 0c-.552 0-1 .448-1 1s.448 1 1 1 1-.448 1-1-.448-1-1-1zm1-6H7v4h10V4z"/>
    </g>
</svg>
