<svg xmlns="http://www.w3.org/2000/svg" width="24" height="24" viewBox="0 0 24 24">
    <g fill="none" fill-rule="evenodd">
        <path d="M0 0H24V24H0z"/>
        <path fill="#FFF" d="M4 4h16c1.105 0 2 .895 2 2v12c0 1.105-.895 2-2 2H4c-1.105 0-2-.895-2-2V6c0-1.105.895-2 2-2z" opacity=".44"/>
        <path fill="#FFF" d="M18.5 11h-13c-.828 0-1.5.672-1.5 1.5v.5h4.586c.265 0 .52.105.707.293l1 1c.453.453 1.067.707 1.707.707.64 0 1.254-.254 1.707-.707l1-1c.188-.188.442-.293.707-.293H20v-.5c0-.828-.672-1.5-1.5-1.5zM5.5 6C4.672 6 4 6.672 4 7.5V8h16v-.5c0-.828-.672-1.5-1.5-1.5h-13z"/>
    </g>
</svg>
