<svg xmlns="http://www.w3.org/2000/svg" width="24" height="24" viewBox="0 0 24 24">
    <g fill="none" fill-rule="evenodd">
        <path d="M0 0H24V24H0z"/>
        <path fill="#FFF" fill-rule="nonzero" d="M16.032 5.687L5.758 15.946c-.637.635-.637 1.666-.002 2.303h.001c.636.637 1.667.637 2.303 0h.001L18.32 7.975c.63-.632.63-1.656-.001-2.287-.632-.631-1.655-.632-2.287 0z"/>
        <path fill="#FFF" d="M17.073 14.143C18.69 14.143 20 15.45 20 17.07 20 18.691 18.69 20 17.073 20s-2.93-1.31-2.93-2.929c0-1.621 1.313-2.928 2.93-2.928zM6.93 4c1.617 0 2.927 1.31 2.927 2.929 0 1.618-1.31 2.928-2.927 2.928S4 8.547 4 6.93C4 5.309 5.313 4 6.93 4z" opacity=".44"/>
    </g>
</svg>
