<svg xmlns="http://www.w3.org/2000/svg" width="24" height="24" viewBox="0 0 24 24">
    <g fill="none" fill-rule="evenodd">
        <path d="M0 0H24V24H0z"/>
        <path fill="#A475F6" d="M7.5 16c.828 0 1.5.672 1.5 1.5v2c0 .828-.672 1.5-1.5 1.5h-1c-.828 0-1.5-.672-1.5-1.5v-2c0-.828.672-1.5 1.5-1.5h1zm10 0c.828 0 1.5.672 1.5 1.5v2c0 .828-.672 1.5-1.5 1.5h-1c-.828 0-1.5-.672-1.5-1.5v-2c0-.828.672-1.5 1.5-1.5h1z" opacity=".3"/>
        <path fill="#6236FF" d="M19 4c1.105 0 2 .895 2 2v11c0 1.105-.895 2-2 2H5c-1.105 0-2-.895-2-2V6c0-1.105.895-2 2-2h14zm-3.5 4C13.567 8 12 9.567 12 11.5s1.567 3.5 3.5 3.5 3.5-1.567 3.5-3.5S17.433 8 15.5 8zm0 5c.828 0 1.5-.672 1.5-1.5s-.672-1.5-1.5-1.5-1.5.672-1.5 1.5.672 1.5 1.5 1.5zM7 8c.552 0 1 .448 1 1v2c0 .552-.448 1-1 1s-1-.448-1-1V9c0-.552.448-1 1-1z"/>
    </g>
</svg>
